<?xml version="1.0" encoding="UTF-8"?>
<svg id="Layer_2" xmlns="http://www.w3.org/2000/svg" version="1.1" viewBox="0 0 712.8 239.1">
  <!-- Generator: Adobe Illustrator 30.0.0, SVG Export Plug-In . SVG Version: 2.1.1 Build 123)  -->
  <defs>
    <style>
      .st0 {
        fill: #fff;
      }
    </style>
  </defs>
  <path class="st0" d="M646.9,109.8l-48-34.5c-.6-.5-1-1.2-1-1.9V7.4c0-1.3-1.1-2.4-2.4-2.4h-46.1c-1.3,0-2.4,1.1-2.4,2.4v28.8c0,.5-.6.8-1,.5L493.8.4c-.8-.6-1.9-.6-2.8,0l-87.6,62.3c-.8.6-1.9.6-2.7,0l-42.6-29.1c-.8-.6-2-.6-2.8,0l-43.2,31.6c-.8.6-2,.6-2.8,0L218.8.5c-.8-.6-2-.6-2.8,0l-51.9,36.9c-.5.4-1.3,0-1.3-.7V7.5c0-1.3-1.1-2.4-2.4-2.4h-46.3c-1.3,0-2.4,1.1-2.4,2.4v66.4c0,.8-.4,1.5-1,2l-48.2,33.9c-1.1.8-1.3,2.3-.6,3.4l1.1,1.5c.8,1.1,2.3,1.3,3.3.6l51.6-36.4c.6-.4,1-1.2,1-2V14.4c0-1.3,1.1-2.4,2.4-2.4h31.4c1.3,0,2.4,1.1,2.4,2.4v32.3c0,1.9,2.2,3.1,3.8,2l57.1-39.3c.8-.6,1.9-.6,2.7,0l85.2,60.5c.4.3.4.8,0,1.1l-53,38.1c-1.1.8-1.3,2.3-.6,3.3l1.6,2.2c.8,1.1,2.3,1.3,3.4.6l100-72.6c.8-.6,1.9-.6,2.8,0l101.5,68.4c1.1.7,2.6.4,3.4-.7l1.4-2.2c.7-1.1.4-2.6-.7-3.3l-53.9-36.7c-.4-.3-.4-.9,0-1.2l81.2-57.9c.8-.6,1.9-.6,2.8,0l56.1,39.5c1.6,1.1,3.8,0,3.8-2V14.1c0-1.3,1.1-2.4,2.4-2.4h32.4c1.3,0,2.4,1.1,2.4,2.4v62.4c0,.8.4,1.5,1,1.9l51.2,36.8c1.1.8,2.6.5,3.4-.6l1-1.5c.8-1.1.5-2.6-.6-3.3Z"/>
  <g>
    <path class="st0" d="M27,191.8c-5.5,0-10.2-1-14.3-3-4.1-2-7.2-4.8-9.4-8.3-2.2-3.5-3.3-7.6-3.3-12.3s.8-8.9,2.4-12.9c1.6-3.9,3.9-7.3,6.9-10.2,3-2.9,6.5-5.1,10.6-6.7,4.1-1.6,8.7-2.4,13.7-2.4s9.3.9,13.2,2.6c3.8,1.7,6.7,4.2,8.6,7.5l-10.9,8.7c-1.3-2-2.9-3.6-4.9-4.7-2-1.1-4.3-1.6-7-1.6s-5,.5-7.1,1.4c-2.1.9-3.9,2.2-5.5,3.9-1.5,1.7-2.7,3.7-3.5,5.9-.8,2.3-1.2,4.7-1.2,7.4s.5,4.5,1.6,6.3c1,1.8,2.6,3.2,4.5,4.2,2,1,4.3,1.5,7,1.5s4.7-.5,6.9-1.5c2.2-1,4.3-2.6,6.2-4.7l9,8.8c-3,3.6-6.5,6.2-10.4,7.7-3.9,1.5-8.3,2.3-13,2.3Z"/>
    <path class="st0" d="M81,191.8c-5.5,0-10.2-1-14.2-3-4-2-7-4.8-9.2-8.3-2.2-3.5-3.3-7.6-3.3-12.3s.8-9,2.4-12.9c1.6-3.9,3.9-7.3,6.9-10.2,3-2.9,6.5-5.1,10.6-6.7,4.1-1.6,8.6-2.4,13.5-2.4s10.2,1,14.2,3c4,2,7.1,4.8,9.2,8.3,2.1,3.6,3.2,7.7,3.2,12.2s-.8,9-2.4,12.9c-1.6,3.9-3.9,7.3-6.9,10.2-3,2.9-6.5,5.1-10.6,6.7-4.1,1.6-8.6,2.4-13.5,2.4ZM82.3,179.3c2.7,0,5-.5,7.1-1.5,2.1-1,3.8-2.3,5.3-4.1,1.5-1.7,2.6-3.7,3.3-6,.7-2.3,1.1-4.7,1.1-7.2s-.5-4.4-1.5-6.2c-1-1.8-2.4-3.2-4.3-4.2-1.9-1-4.2-1.5-6.8-1.5s-4.9.5-7,1.5c-2.1,1-3.8,2.3-5.3,4.1-1.5,1.7-2.6,3.7-3.4,6-.8,2.3-1.1,4.7-1.1,7.2s.5,4.4,1.5,6.2c1,1.8,2.4,3.2,4.3,4.2,1.9,1,4.1,1.5,6.8,1.5Z"/>
    <path class="st0" d="M116.8,190.7l10.7-53.6h12.5l21.7,35.7h-5.1c0,0,7-35.7,7-35.7h14.8l-10.7,53.6h-12.5l-21.6-35.7h5.1c0,0-7.1,35.7-7.1,35.7h-14.8Z"/>
    <path class="st0" d="M195.7,179h28.1l-2.4,11.8h-43l10.7-53.6h41.9l-2.4,11.8h-26.9l-6,30ZM198.9,157.9h24.9l-2.2,11.2h-24.9l2.2-11.2Z"/>
    <path class="st0" d="M223.9,190.7l29.5-32.1-1.8,8.7-15.9-30.2h16.1l10.2,20h-6.6c0,0,17.8-20,17.8-20h17.1l-27.6,30.3.5-8.6,17.3,31.8h-16.5l-10.6-21.2,6.8.2-18.2,21h-18.1Z"/>
    <path class="st0" d="M276.6,190.7l34.4-53.6h14.9l13,53.6h-15.2l-9.6-46.4h5.9l-27.4,46.4h-16.1ZM291.6,180.3l6.1-11.1h26.1l1.8,11.1h-34ZM325.8,133.3c-1.4,0-2.6-.2-3.6-.7-1-.5-2-1-2.8-1.6-.8-.6-1.6-1.2-2.3-1.6-.7-.5-1.5-.7-2.2-.7s-1.8.4-2.5,1.1-1.2,1.7-1.5,3h-7.1c.7-4,2-7,3.9-9.1s4.3-3.1,7.2-3.1,2.7.2,3.7.7c1,.5,2,1,2.8,1.6.8.6,1.6,1.2,2.3,1.6.7.5,1.4.7,2.1.7,1.1,0,2-.4,2.6-1.1.7-.7,1.1-1.7,1.3-2.8h7c-.6,3.8-1.8,6.8-3.8,8.8-2,2.1-4.4,3.1-7.2,3.1Z"/>
    <path class="st0" d="M371.3,191.8c-5.5,0-10.2-1-14.2-3s-7-4.8-9.2-8.3c-2.2-3.5-3.3-7.6-3.3-12.3s.8-9,2.4-12.9c1.6-3.9,3.9-7.3,6.9-10.2,3-2.9,6.5-5.1,10.6-6.7,4.1-1.6,8.6-2.4,13.5-2.4s10.2,1,14.2,3c4,2,7.1,4.8,9.2,8.3,2.1,3.6,3.2,7.7,3.2,12.2s-.8,9-2.4,12.9c-1.6,3.9-3.9,7.3-6.9,10.2-3,2.9-6.5,5.1-10.6,6.7-4.1,1.6-8.6,2.4-13.5,2.4ZM372.6,179.3c2.7,0,5-.5,7.1-1.5,2.1-1,3.8-2.3,5.3-4.1,1.5-1.7,2.6-3.7,3.3-6,.7-2.3,1.1-4.7,1.1-7.2s-.5-4.4-1.5-6.2c-1-1.8-2.4-3.2-4.3-4.2-1.9-1-4.2-1.5-6.8-1.5s-4.9.5-7,1.5c-2.1,1-3.8,2.3-5.3,4.1-1.5,1.7-2.6,3.7-3.4,6-.8,2.3-1.1,4.7-1.1,7.2s.5,4.4,1.5,6.2c1,1.8,2.4,3.2,4.3,4.2,1.9,1,4.1,1.5,6.8,1.5Z"/>
    <path class="st0" d="M429.4,190.7l10.7-53.6h27.1c6.1,0,10.7,1.1,13.9,3.2,3.1,2.1,4.7,5.3,4.7,9.3s-.9,6.1-2.7,8.4c-1.8,2.3-4.3,4-7.4,5.2-3.1,1.2-6.6,1.8-10.6,1.8l2.2-3.7c4.9,0,8.9,1.1,11.8,3.2,2.9,2.1,4.4,5.1,4.4,9.1s-1.1,7.1-3.3,9.6c-2.2,2.5-5.1,4.4-8.8,5.6-3.7,1.2-7.9,1.8-12.5,1.8h-29.5ZM446.5,179.8h13.2c2.6,0,4.7-.5,6.2-1.6,1.6-1.1,2.3-2.7,2.3-4.7s-.6-2.7-1.8-3.4c-1.2-.7-2.7-1.1-4.5-1.1h-14.7l2.1-10.5h12.2c1.8,0,3.3-.2,4.6-.7,1.2-.5,2.2-1.1,2.8-2.1.6-.9.9-2,.9-3.4s-.6-2.5-1.7-3.2c-1.1-.7-2.7-1-4.7-1h-10.7l-6.4,31.7Z"/>
    <path class="st0" d="M488.2,190.7l10.7-53.6h22.9c6.8,0,12.1,1.5,15.9,4.5,3.8,3,5.7,7.2,5.7,12.6s-1.1,8.4-3.3,11.7c-2.2,3.3-5.2,5.9-9.2,7.8-4,1.8-8.7,2.8-14.1,2.8h-17.3l8-6.5-4.2,20.7h-15.2ZM507.2,171.8l-5.4-7.1h15.8c3.3,0,5.9-.8,7.7-2.3,1.8-1.5,2.7-3.8,2.7-6.7s-.7-4-2.2-5c-1.5-1-3.5-1.6-6.2-1.6h-14.5l8.1-7.2-6,29.9ZM521.9,190.7l-11-19.5h15.7l11.2,19.5h-15.8Z"/>
    <path class="st0" d="M564.1,190.7l1.9-9.6,23.3-18.1c1.8-1.5,3.3-2.8,4.3-3.8,1-1.1,1.8-2.1,2.2-3.1.4-1,.6-1.9.6-2.9,0-1.5-.6-2.7-1.7-3.6-1.1-.9-2.7-1.3-4.7-1.3s-3.7.5-5.4,1.4c-1.7.9-3.3,2.3-4.6,3.9l-10.1-6.7c2.1-3.3,5.2-6,9.1-7.9,4-2,8.4-2.9,13.2-2.9s7.4.6,10.3,1.9c3,1.3,5.3,3,6.9,5.2,1.6,2.2,2.4,4.8,2.4,7.7s-.4,4.2-1.1,6.2c-.8,2-2.1,4-3.9,6.1-1.8,2.1-4.3,4.3-7.5,6.8l-18.3,14.2-2.1-5.4h29.1l-2.4,12h-41.6Z"/>
    <path class="st0" d="M618.3,190.7l30-48,3.2,6.4h-27.2l7.7-7-3.1,15.2h-12.9l4.1-20.3h44.3l-1.9,9.6-27.2,44h-17.1Z"/>
    <path class="st0" d="M666.7,190.7l30-48,3.2,6.4h-27.2l7.7-7-3.1,15.2h-12.9l4.1-20.3h44.3l-1.9,9.6-27.2,44h-17.1Z"/>
  </g>
  <g>
    <path class="st0" d="M84.3,234.7h-4.6l4-20h4.6l-4,20ZM95.4,226.5h-9.7l.8-3.9h9.7l-.8,3.9ZM97.4,214.7h4.6l-4,20h-4.6l4-20Z"/>
    <path class="st0" d="M102.8,234.7l4-20h4.6l-4,20h-4.6Z"/>
    <path class="st0" d="M112.2,234.7l4-20h8.4c2.1,0,3.8.3,5.3,1,1.5.7,2.6,1.6,3.4,2.9.8,1.2,1.2,2.7,1.2,4.4s-.3,3.4-.9,4.8c-.6,1.4-1.5,2.7-2.6,3.7-1.1,1-2.4,1.8-3.9,2.4-1.5.6-3.2.8-5.1.8h-9.8ZM117.6,230.9h4.5c1.6,0,3-.3,4.1-1,1.1-.7,2-1.6,2.6-2.7.6-1.2.9-2.5.9-3.9s-.2-1.8-.6-2.6-1.1-1.3-1.9-1.7c-.8-.4-1.9-.6-3.1-.6h-4l-2.5,12.5Z"/>
    <path class="st0" d="M135.7,234.7l4-20h8.1c2.5,0,4.4.5,5.8,1.6,1.4,1.1,2,2.6,2,4.5s-.4,3.2-1.2,4.4c-.8,1.2-1.9,2.2-3.4,2.8s-3.2,1-5.2,1h-6.5l2.4-2-1.5,7.6h-4.7ZM141.8,227.6l-1.6-2.2h6c1.5,0,2.7-.3,3.6-1,.9-.7,1.3-1.7,1.3-3s-.3-1.7-1-2.2c-.6-.5-1.6-.7-2.8-.7h-5.6l2.4-2.3-2.3,11.4ZM148.6,234.7l-4.1-7.3h4.8l4.1,7.3h-4.9Z"/>
    <path class="st0" d="M154.1,234.7l12.9-20h4.6l4.9,20h-4.6l-3.9-17.7h1.9l-10.8,17.7h-4.9ZM159.4,230.4l1.9-3.5h10.3l.5,3.5h-12.8ZM167,213.1l4.3-4.1h4.9l-5.6,4.1h-3.6Z"/>
    <path class="st0" d="M187.3,235c-1.9,0-3.6-.4-4.9-1.1-1.3-.8-2.2-1.8-2.7-3.2-.5-1.4-.6-3-.2-4.8l2.3-11.2h4.6l-2.2,11.1c-.4,1.8-.2,3.1.5,4,.7.9,1.8,1.3,3.3,1.3s2.5-.4,3.4-1.3c.8-.8,1.5-2.2,1.8-4.1l2.2-11.1h4.5l-2.3,11.4c-.6,3-1.7,5.2-3.4,6.7-1.7,1.5-4,2.3-6.8,2.3Z"/>
    <path class="st0" d="M200.2,234.7l4-20h4.6l-3.2,16.2h10l-.7,3.8h-14.7Z"/>
    <path class="st0" d="M217.4,234.7l4-20h4.6l-4,20h-4.6Z"/>
    <path class="st0" d="M237.3,235c-2,0-3.8-.4-5.3-1.1-1.5-.7-2.6-1.7-3.4-3s-1.2-2.8-1.2-4.5.3-3.3.9-4.7,1.4-2.7,2.5-3.8c1.1-1.1,2.4-1.9,3.9-2.5,1.5-.6,3.2-.9,5.1-.9s3.4.3,4.7.9c1.4.6,2.4,1.5,3.1,2.6l-3.3,2.7c-.5-.7-1.1-1.3-1.9-1.7s-1.8-.6-2.9-.6-2.1.2-3.1.6c-.9.4-1.7,1-2.4,1.7s-1.2,1.5-1.5,2.5c-.3.9-.5,2-.5,3s.2,1.9.6,2.6c.4.8,1.1,1.3,1.9,1.8.8.4,1.9.6,3,.6s2-.2,2.9-.6,1.7-1,2.4-1.8l2.7,2.8c-1,1.2-2.3,2.1-3.7,2.6-1.4.5-3,.8-4.7.8Z"/>
    <path class="st0" d="M257.2,235c-2,0-3.8-.4-5.2-1.1-1.5-.7-2.6-1.8-3.4-3.1-.8-1.3-1.2-2.8-1.2-4.5s.3-3.3.9-4.7c.6-1.5,1.4-2.7,2.5-3.8,1.1-1.1,2.4-1.9,3.9-2.5,1.5-.6,3.2-.9,5-.9s3.8.4,5.2,1.1c1.4.7,2.6,1.8,3.3,3.1.8,1.3,1.2,2.8,1.2,4.5s-.3,3.3-.9,4.7c-.6,1.5-1.4,2.7-2.5,3.8-1.1,1.1-2.4,1.9-3.9,2.5s-3.2.9-5,.9ZM257.6,231.1c1.1,0,2.2-.2,3.1-.6.9-.4,1.7-1,2.3-1.7.6-.7,1.1-1.6,1.4-2.5.3-.9.5-1.9.5-3s-.2-1.9-.6-2.6c-.4-.8-1-1.3-1.9-1.8s-1.8-.6-3-.6-2.1.2-3,.6-1.7,1-2.3,1.7c-.6.7-1.1,1.6-1.5,2.5-.3.9-.5,1.9-.5,3s.2,1.9.6,2.6,1,1.3,1.9,1.8c.8.4,1.8.6,3,.6Z"/>
    <path class="st0" d="M277.9,235c-1.1,0-2.1,0-3.2-.3-1-.2-2-.5-2.8-.8s-1.5-.7-2.1-1.1l1.9-3.6c.6.4,1.3.8,2,1.1.7.3,1.5.6,2.2.7.8.2,1.6.2,2.4.2s1.6,0,2.2-.3c.6-.2,1.1-.4,1.4-.8.3-.4.5-.8.5-1.2s-.2-.9-.5-1.1c-.4-.3-.8-.5-1.4-.7-.6-.2-1.2-.4-1.9-.6s-1.4-.4-2.1-.7c-.7-.3-1.4-.6-1.9-1-.6-.4-1.1-.9-1.4-1.5-.4-.6-.5-1.4-.5-2.3,0-1.4.4-2.6,1.1-3.6.8-1,1.8-1.8,3.2-2.4s3-.8,4.8-.8,2.6.1,3.8.4c1.2.3,2.2.7,3.1,1.3l-1.8,3.5c-.8-.5-1.6-.9-2.6-1.1s-1.9-.4-2.9-.4-1.7.1-2.3.3c-.6.2-1.1.5-1.5.9-.3.4-.5.8-.5,1.3,0,.5.2.8.5,1.1.4.3.8.6,1.4.8.6.2,1.2.4,1.9.6s1.4.4,2.1.7,1.4.5,1.9.9c.6.4,1.1.9,1.4,1.5.4.6.5,1.3.5,2.2,0,1.4-.4,2.6-1.1,3.6-.8,1-1.8,1.8-3.2,2.4-1.4.6-3,.8-4.8.8Z"/>
    <path class="st0" d="M287.8,239.1l3.2-6.9.5,2.7c-.8,0-1.4-.2-1.9-.7-.5-.5-.7-1.1-.7-1.8s.3-1.6.9-2.2c.6-.6,1.3-.8,2.1-.8s1.4.2,1.9.7c.5.5.7,1.1.7,1.9s0,.8-.2,1.2-.4.8-.7,1.4l-2.9,4.6h-2.8Z"/>
    <path class="st0" d="M309.9,234.7h-4.6l4-20h15.1l-.7,3.7h-10.5l-3.3,16.3ZM311.8,223.7h9.6l-.7,3.7h-9.6l.7-3.7Z"/>
    <path class="st0" d="M328.9,231h10.9l-.7,3.7h-15.5l4-20h15.1l-.7,3.7h-10.5l-2.5,12.6ZM330.2,222.7h9.6l-.7,3.6h-9.6l.7-3.6Z"/>
    <path class="st0" d="M342.7,234.7l4-20h8.1c2.5,0,4.4.5,5.8,1.6s2,2.6,2,4.5-.4,3.2-1.2,4.4c-.8,1.2-1.9,2.2-3.4,2.8s-3.2,1-5.2,1h-6.5l2.4-2-1.5,7.6h-4.7ZM348.8,227.6l-1.6-2.2h6c1.5,0,2.7-.3,3.6-1,.9-.7,1.3-1.7,1.3-3s-.3-1.7-1-2.2c-.6-.5-1.6-.7-2.8-.7h-5.6l2.4-2.3-2.3,11.4ZM355.6,234.7l-4.1-7.3h4.8l4.1,7.3h-4.9Z"/>
    <path class="st0" d="M363.7,234.7l4-20h8.1c2.5,0,4.4.5,5.8,1.6s2,2.6,2,4.5-.4,3.2-1.2,4.4c-.8,1.2-1.9,2.2-3.4,2.8-1.5.7-3.2,1-5.2,1h-6.5l2.4-2-1.5,7.6h-4.7ZM369.7,227.6l-1.6-2.2h6c1.5,0,2.7-.3,3.6-1,.9-.7,1.3-1.7,1.3-3s-.3-1.7-1-2.2c-.6-.5-1.6-.7-2.8-.7h-5.6l2.4-2.3-2.3,11.4ZM376.6,234.7l-4.1-7.3h4.8l4.1,7.3h-4.9Z"/>
    <path class="st0" d="M382.1,234.7l12.9-20h4.6l4.9,20h-4.6l-3.9-17.7h1.9l-10.8,17.7h-4.9ZM387.4,230.4l1.9-3.5h10.3l.5,3.5h-12.8Z"/>
    <path class="st0" d="M416.8,235c-2,0-3.8-.4-5.2-1.1-1.5-.7-2.6-1.7-3.4-3s-1.2-2.8-1.2-4.5.3-3.3.9-4.7c.6-1.5,1.5-2.7,2.6-3.8,1.1-1.1,2.4-1.9,4-2.5,1.5-.6,3.3-.9,5.2-.9s3.6.3,5,.9,2.5,1.5,3.4,2.6l-3.4,2.7c-.6-.8-1.4-1.4-2.3-1.8s-1.8-.5-2.9-.5-2.2.2-3.2.6c-.9.4-1.8,1-2.4,1.7-.7.7-1.2,1.5-1.5,2.5s-.5,2-.5,3.1.2,1.9.7,2.6c.4.8,1.1,1.3,2,1.8.9.4,1.9.6,3.2.6s1.9-.2,2.7-.5,1.7-.8,2.5-1.5l1.8,3.5c-1,.8-2.2,1.4-3.5,1.8-1.3.4-2.7.6-4.2.6ZM420.4,231.9l1.5-7.5h4.2l-1.7,8.2-4.1-.7Z"/>
    <path class="st0" d="M433.6,231h10.9l-.7,3.7h-15.5l4-20h15.1l-.7,3.7h-10.5l-2.5,12.6ZM434.9,222.7h9.6l-.7,3.6h-9.6l.7-3.6Z"/>
    <path class="st0" d="M447.4,234.7l4-20h3.8l8.6,14.5h-1.5c0,0,2.9-14.5,2.9-14.5h4.5l-4,20h-3.8l-8.6-14.5h1.5c0,0-2.9,14.5-2.9,14.5h-4.6Z"/>
    <path class="st0" d="M477.5,235c-1.1,0-2.1,0-3.2-.3-1-.2-2-.5-2.8-.8-.8-.3-1.5-.7-2.1-1.1l1.9-3.6c.6.4,1.3.8,2,1.1.7.3,1.5.6,2.2.7.8.2,1.6.2,2.4.2s1.6,0,2.2-.3c.6-.2,1.1-.4,1.4-.8.3-.4.5-.8.5-1.2s-.2-.9-.5-1.1c-.4-.3-.8-.5-1.4-.7-.6-.2-1.2-.4-1.9-.6s-1.4-.4-2.1-.7c-.7-.3-1.4-.6-1.9-1-.6-.4-1.1-.9-1.4-1.5s-.5-1.4-.5-2.3c0-1.4.4-2.6,1.1-3.6.8-1,1.8-1.8,3.2-2.4s3-.8,4.8-.8,2.6.1,3.8.4c1.2.3,2.2.7,3.1,1.3l-1.8,3.5c-.8-.5-1.6-.9-2.6-1.1s-1.9-.4-2.9-.4-1.7.1-2.3.3c-.6.2-1.1.5-1.5.9s-.5.8-.5,1.3c0,.5.2.8.5,1.1.4.3.8.6,1.4.8s1.2.4,1.9.6c.7.2,1.4.4,2.1.7.7.2,1.4.5,1.9.9s1.1.9,1.4,1.5c.4.6.5,1.3.5,2.2,0,1.4-.4,2.6-1.1,3.6s-1.8,1.8-3.2,2.4c-1.4.6-3,.8-4.8.8Z"/>
    <path class="st0" d="M502.2,231h10.9l-.7,3.7h-15.5l4-20h15.1l-.7,3.7h-10.5l-2.5,12.6ZM503.5,222.7h9.6l-.7,3.6h-9.6l.7-3.6Z"/>
    <path class="st0" d="M528.2,234.7l3.2-16.2h-6.4l.7-3.8h17.4l-.8,3.8h-6.4l-3.2,16.2h-4.7Z"/>
    <path class="st0" d="M541.7,234.7l4-20h4.6l-4,20h-4.6Z"/>
    <path class="st0" d="M551.1,234.7l4-20h3.8l8.6,14.5h-1.5c0,0,2.9-14.5,2.9-14.5h4.5l-4,20h-3.8l-8.6-14.5h1.5c0,0-2.9,14.5-2.9,14.5h-4.6Z"/>
    <path class="st0" d="M578.3,234.7l3.2-16.2h-6.4l.7-3.8h17.4l-.8,3.8h-6.4l-3.2,16.2h-4.7Z"/>
    <path class="st0" d="M588.2,234.7l12.9-20h4.6l4.9,20h-4.6l-3.9-17.7h1.9l-10.8,17.7h-4.9ZM593.5,230.4l1.9-3.5h10.3l.5,3.5h-12.8Z"/>
    <path class="st0" d="M619.7,235c-1.1,0-2.1,0-3.2-.3-1-.2-2-.5-2.8-.8-.8-.3-1.5-.7-2.1-1.1l1.9-3.6c.6.4,1.3.8,2,1.1.7.3,1.5.6,2.2.7.8.2,1.6.2,2.4.2s1.6,0,2.2-.3c.6-.2,1.1-.4,1.4-.8.3-.4.5-.8.5-1.2s-.2-.9-.5-1.1c-.4-.3-.8-.5-1.4-.7-.6-.2-1.2-.4-1.9-.6s-1.4-.4-2.1-.7c-.7-.3-1.4-.6-1.9-1-.6-.4-1.1-.9-1.4-1.5s-.5-1.4-.5-2.3c0-1.4.4-2.6,1.1-3.6.8-1,1.8-1.8,3.2-2.4s3-.8,4.8-.8,2.6.1,3.8.4c1.2.3,2.2.7,3.1,1.3l-1.8,3.5c-.8-.5-1.6-.9-2.6-1.1s-1.9-.4-2.9-.4-1.7.1-2.3.3c-.6.2-1.1.5-1.5.9s-.5.8-.5,1.3c0,.5.2.8.5,1.1.4.3.8.6,1.4.8s1.2.4,1.9.6c.7.2,1.4.4,2.1.7.7.2,1.4.5,1.9.9s1.1.9,1.4,1.5c.4.6.5,1.3.5,2.2,0,1.4-.4,2.6-1.1,3.6s-1.8,1.8-3.2,2.4c-1.4.6-3,.8-4.8.8Z"/>
  </g>
</svg>